<svg width="48" height="48" viewBox="0 0 48 48" fill="none" xmlns="http://www.w3.org/2000/svg">
<rect width="48" height="48" rx="10" fill="#1F6EFF"/>
<path d="M22.3612 8.93932C23.2724 8.60511 24.7596 8.60508 25.6708 8.93932L34.4628 12.2186C36.1412 12.8554 37.5159 14.8293 37.4999 16.6278V29.5194C37.4999 30.8086 36.6523 32.4964 35.6132 33.2763L27.4999 39.3113V22.6894C27.4999 22.1371 27.9476 21.6894 28.4999 21.6894H32.4999C33.0522 21.6894 33.4999 21.2416 33.4999 20.6894V17.6893C33.4999 17.1371 33.0522 16.6893 32.4999 16.6893L15.4999 16.6883C14.9477 16.6883 14.4999 17.1361 14.4999 17.6883V20.6883C14.4999 21.2406 14.9477 21.6882 15.4999 21.6883L19.4999 21.6894C20.0522 21.6894 20.4999 22.1371 20.4999 22.6894V39.3113L12.3867 33.2763C11.3476 32.5123 10.4999 30.8086 10.4999 29.5194V16.6278C10.4999 14.8292 11.8748 12.8553 13.5693 12.2186L22.3612 8.93932Z" fill="white"/>
</svg>
